G04 start of page 2 for group 8 layer_idx 1 *
G04 Title: (unknown), bottom_copper *
G04 Creator: pcb-rnd 3.1.5-dev *
G04 CreationDate: 2024-03-25 20:38:14 UTC *
G04 For: STEM4ukraine *
G04 Format: Gerber/RS-274X *
G04 PCB-Dimensions: 393701 393701 *
G04 PCB-Coordinate-Origin: lower left *
%MOIN*%
%FSLAX25Y25*%
%LNBOTTOM_COPPER_NONE_8*%
%ADD30C,0.0374*%
%ADD29C,0.0394*%
%ADD28C,0.0394*%
%ADD27C,0.0787*%
%ADD26C,0.1535*%
%ADD25C,0.0827*%
%ADD24C,0.0900*%
%ADD23C,0.0800*%
%ADD22C,0.0400*%
%ADD21C,0.0001*%
G54D21*G36*
X391732Y368110D02*Y1969D01*
X369173D01*
Y13056D01*
X369330Y13068D01*
X369483Y13105D01*
X369629Y13165D01*
X369763Y13248D01*
X369883Y13350D01*
X369985Y13470D01*
X370067Y13604D01*
X370127Y13749D01*
X370164Y13902D01*
X370173Y14059D01*
Y16217D01*
X370164Y16373D01*
X370127Y16527D01*
X370067Y16672D01*
X369985Y16806D01*
X369883Y16926D01*
X369763Y17028D01*
X369629Y17110D01*
X369483Y17171D01*
X369330Y17207D01*
X369173Y17220D01*
Y31067D01*
X369312Y31125D01*
X369647Y31330D01*
X369946Y31586D01*
X370202Y31885D01*
X370408Y32221D01*
X370558Y32584D01*
X370650Y32967D01*
X370681Y33359D01*
X370673Y33457D01*
Y46461D01*
X370681Y46559D01*
X370650Y46951D01*
X370650Y46951D01*
X370558Y47334D01*
X370408Y47697D01*
X370202Y48033D01*
X369946Y48332D01*
X369647Y48588D01*
X369312Y48793D01*
X369173Y48851D01*
Y390669D01*
X391732Y368110D01*
G37*
G36*
X364171Y1969D02*Y6553D01*
X364173Y6553D01*
X364711Y6577D01*
X365244Y6649D01*
X365768Y6769D01*
X366280Y6935D01*
X366775Y7146D01*
X367249Y7400D01*
X367698Y7696D01*
X368119Y8031D01*
X368509Y8403D01*
X368863Y8807D01*
X368953Y8937D01*
X369020Y9080D01*
X369064Y9232D01*
X369084Y9389D01*
X369079Y9547D01*
X369049Y9702D01*
X368995Y9851D01*
X368919Y9989D01*
X368822Y10114D01*
X368707Y10222D01*
X368576Y10311D01*
X368433Y10378D01*
X368281Y10422D01*
X368124Y10442D01*
X367966Y10437D01*
X367811Y10407D01*
X367662Y10353D01*
X367524Y10277D01*
X367399Y10180D01*
X367294Y10063D01*
X367061Y9791D01*
X366801Y9544D01*
X366521Y9321D01*
X366222Y9123D01*
X365906Y8954D01*
X365576Y8813D01*
X365236Y8703D01*
X364886Y8623D01*
X364531Y8575D01*
X364173Y8559D01*
X364171Y8559D01*
Y21716D01*
X364173Y21717D01*
X364531Y21700D01*
X364886Y21652D01*
X365236Y21573D01*
X365576Y21462D01*
X365906Y21322D01*
X366222Y21152D01*
X366521Y20955D01*
X366801Y20732D01*
X367061Y20485D01*
X367297Y20215D01*
X367402Y20099D01*
X367526Y20002D01*
X367664Y19926D01*
X367812Y19873D01*
X367967Y19843D01*
X368124Y19838D01*
X368280Y19858D01*
X368431Y19901D01*
X368574Y19968D01*
X368704Y20057D01*
X368819Y20164D01*
X368916Y20289D01*
X368991Y20427D01*
X369045Y20575D01*
X369075Y20729D01*
X369080Y20887D01*
X369060Y21043D01*
X369016Y21194D01*
X368949Y21336D01*
X368858Y21465D01*
X368509Y21873D01*
X368119Y22244D01*
X367698Y22579D01*
X367249Y22875D01*
X366775Y23130D01*
X366280Y23341D01*
X365768Y23507D01*
X365244Y23626D01*
X364711Y23698D01*
X364173Y23723D01*
X364171Y23722D01*
Y30859D01*
X368075D01*
X368173Y30851D01*
X368566Y30882D01*
X368948Y30974D01*
X369173Y31067D01*
Y17220D01*
X369016Y17207D01*
X368863Y17171D01*
X368718Y17110D01*
X368584Y17028D01*
X368464Y16926D01*
X368362Y16806D01*
X368279Y16672D01*
X368219Y16527D01*
X368182Y16373D01*
X368173Y16217D01*
Y14059D01*
X368182Y13902D01*
X368219Y13749D01*
X368279Y13604D01*
X368362Y13470D01*
X368464Y13350D01*
X368584Y13248D01*
X368718Y13165D01*
X368863Y13105D01*
X369016Y13068D01*
X369173Y13056D01*
Y1969D01*
X364171D01*
G37*
G36*
X359173D02*Y13056D01*
X359330Y13068D01*
X359483Y13105D01*
X359629Y13165D01*
X359763Y13248D01*
X359883Y13350D01*
X359985Y13470D01*
X360067Y13604D01*
X360127Y13749D01*
X360164Y13902D01*
X360173Y14059D01*
Y16217D01*
X360164Y16373D01*
X360127Y16527D01*
X360067Y16672D01*
X359985Y16806D01*
X359883Y16926D01*
X359763Y17028D01*
X359629Y17110D01*
X359483Y17171D01*
X359330Y17207D01*
X359173Y17220D01*
Y31067D01*
X359398Y30974D01*
X359781Y30882D01*
X360173Y30851D01*
X360271Y30859D01*
X364171D01*
Y23722D01*
X363636Y23698D01*
X363103Y23626D01*
X362578Y23507D01*
X362066Y23341D01*
X361571Y23130D01*
X361098Y22875D01*
X360648Y22579D01*
X360227Y22244D01*
X359838Y21873D01*
X359483Y21468D01*
X359394Y21338D01*
X359327Y21195D01*
X359283Y21044D01*
X359263Y20887D01*
X359268Y20729D01*
X359298Y20574D01*
X359351Y20425D01*
X359428Y20286D01*
X359524Y20162D01*
X359640Y20054D01*
X359771Y19965D01*
X359914Y19898D01*
X360065Y19854D01*
X360222Y19834D01*
X360380Y19839D01*
X360535Y19869D01*
X360684Y19922D01*
X360822Y19999D01*
X360947Y20096D01*
X361053Y20213D01*
X361286Y20485D01*
X361545Y20732D01*
X361826Y20955D01*
X362125Y21152D01*
X362440Y21322D01*
X362770Y21462D01*
X363111Y21573D01*
X363460Y21652D01*
X363815Y21700D01*
X364171Y21716D01*
Y8559D01*
X363815Y8575D01*
X363460Y8623D01*
X363111Y8703D01*
X362770Y8813D01*
X362440Y8954D01*
X362125Y9123D01*
X361826Y9321D01*
X361545Y9544D01*
X361286Y9791D01*
X361050Y10060D01*
X360944Y10177D01*
X360820Y10274D01*
X360682Y10350D01*
X360534Y10403D01*
X360380Y10433D01*
X360222Y10438D01*
X360066Y10418D01*
X359915Y10374D01*
X359773Y10307D01*
X359642Y10219D01*
X359527Y10111D01*
X359431Y9987D01*
X359355Y9849D01*
X359302Y9701D01*
X359272Y9546D01*
X359267Y9389D01*
X359287Y9233D01*
X359330Y9082D01*
X359397Y8939D01*
X359488Y8811D01*
X359838Y8403D01*
X360227Y8031D01*
X360648Y7696D01*
X361098Y7400D01*
X361571Y7146D01*
X362066Y6935D01*
X362578Y6769D01*
X363103Y6649D01*
X363636Y6577D01*
X364171Y6553D01*
Y1969D01*
X359173D01*
G37*
G36*
X368110Y391732D02*X369173Y390669D01*
Y48851D01*
X368948Y48944D01*
X368566Y49036D01*
X368173Y49067D01*
X368075Y49059D01*
X360271D01*
X360173Y49067D01*
X359781Y49036D01*
X359398Y48944D01*
X359173Y48851D01*
Y391732D01*
X368110D01*
G37*
G36*
X359173D02*Y48851D01*
X359035Y48793D01*
X358699Y48588D01*
X358400Y48332D01*
X358144Y48033D01*
X357939Y47697D01*
X357788Y47334D01*
X357696Y46951D01*
X357666Y46559D01*
X357673Y46461D01*
Y33457D01*
X357666Y33359D01*
X357696Y32967D01*
X357696Y32967D01*
X357788Y32584D01*
X357939Y32221D01*
X358144Y31885D01*
X358400Y31586D01*
X358699Y31330D01*
X359035Y31125D01*
X359173Y31067D01*
Y17220D01*
X359016Y17207D01*
X358863Y17171D01*
X358718Y17110D01*
X358584Y17028D01*
X358464Y16926D01*
X358362Y16806D01*
X358279Y16672D01*
X358219Y16527D01*
X358182Y16373D01*
X358173Y16217D01*
Y14059D01*
X358182Y13902D01*
X358219Y13749D01*
X358279Y13604D01*
X358362Y13470D01*
X358464Y13350D01*
X358584Y13248D01*
X358718Y13165D01*
X358863Y13105D01*
X359016Y13068D01*
X359173Y13056D01*
Y1969D01*
X331927D01*
X331939Y1983D01*
X336218Y6262D01*
X336337Y6364D01*
X336746Y6842D01*
X336746Y6842D01*
X337075Y7379D01*
X337316Y7961D01*
X337463Y8573D01*
X337512Y9201D01*
X337500Y9358D01*
Y24044D01*
X337512Y24201D01*
X337463Y24828D01*
X337316Y25441D01*
X337075Y26022D01*
X336746Y26559D01*
X336337Y27038D01*
X336218Y27140D01*
X329000Y34358D01*
Y37193D01*
X329392Y37224D01*
X329392Y37224D01*
X329775Y37316D01*
X330138Y37466D01*
X330474Y37672D01*
X330773Y37928D01*
X331029Y38227D01*
X331234Y38562D01*
X331385Y38926D01*
X331477Y39308D01*
X331508Y39701D01*
X331500Y39799D01*
Y47603D01*
X331508Y47701D01*
X331477Y48093D01*
X331477Y48093D01*
X331385Y48476D01*
X331234Y48839D01*
X331029Y49175D01*
X330773Y49474D01*
X330474Y49730D01*
X330138Y49935D01*
X329775Y50086D01*
X329392Y50178D01*
X329000Y50208D01*
X328902Y50201D01*
X321098D01*
X321000Y50208D01*
X320608Y50178D01*
X320608Y50178D01*
X320225Y50086D01*
X319862Y49935D01*
X319526Y49730D01*
X319227Y49474D01*
X319000Y49208D01*
Y61044D01*
X319012Y61201D01*
X318963Y61828D01*
X318963Y61828D01*
X318816Y62441D01*
X318575Y63022D01*
X318246Y63559D01*
X317837Y64038D01*
X317718Y64140D01*
X307939Y73918D01*
X307837Y74038D01*
X307358Y74447D01*
X306822Y74776D01*
X306240Y75017D01*
X305628Y75164D01*
X305000Y75213D01*
X304843Y75201D01*
X75109D01*
Y391732D01*
X359173D01*
G37*
G36*
X303343Y67201D02*X311000Y59544D01*
Y48832D01*
X310390Y48311D01*
X310000Y47855D01*
X309610Y48311D01*
X308832Y48976D01*
X307960Y49510D01*
X307015Y49902D01*
X306020Y50141D01*
X305000Y50221D01*
X303980Y50141D01*
X302985Y49902D01*
X302040Y49510D01*
X301168Y48976D01*
X300390Y48311D01*
X299725Y47533D01*
X299191Y46661D01*
X298799Y45716D01*
X298560Y44721D01*
X298480Y43701D01*
X298560Y42681D01*
X298799Y41686D01*
X299191Y40741D01*
X299725Y39868D01*
X300390Y39090D01*
X301168Y38426D01*
X302040Y37891D01*
X302985Y37500D01*
X303980Y37261D01*
X305000Y37181D01*
X306020Y37261D01*
X307015Y37500D01*
X307960Y37891D01*
X308832Y38426D01*
X309610Y39090D01*
X310000Y39547D01*
X310390Y39090D01*
X311168Y38426D01*
X312040Y37891D01*
X312985Y37500D01*
X313980Y37261D01*
X315000Y37181D01*
X316020Y37261D01*
X317015Y37500D01*
X317960Y37891D01*
X318832Y38426D01*
X318843Y38435D01*
X318971Y38227D01*
X319227Y37928D01*
X319526Y37672D01*
X319862Y37466D01*
X320225Y37316D01*
X320608Y37224D01*
X321000Y37193D01*
Y32858D01*
X320988Y32701D01*
X321016Y32342D01*
X319439Y33918D01*
X319337Y34038D01*
X318858Y34447D01*
X318322Y34776D01*
X317740Y35017D01*
X317128Y35164D01*
X316500Y35213D01*
X316343Y35201D01*
X295002D01*
Y37201D01*
X295287D01*
X295860Y37251D01*
X296425Y37352D01*
X296980Y37503D01*
X297163Y37576D01*
X297332Y37679D01*
X297483Y37806D01*
X297611Y37955D01*
X297715Y38123D01*
X297792Y38305D01*
X297839Y38497D01*
X297855Y38694D01*
X297841Y38890D01*
X297796Y39083D01*
X297721Y39265D01*
X297619Y39434D01*
X297491Y39585D01*
X297342Y39714D01*
X297174Y39818D01*
X296992Y39894D01*
X296801Y39941D01*
X296604Y39958D01*
X296407Y39943D01*
X296216Y39894D01*
X295876Y39798D01*
X295529Y39736D01*
X295177Y39705D01*
X295002D01*
Y47697D01*
X295177D01*
X295529Y47666D01*
X295876Y47604D01*
X296217Y47511D01*
X296408Y47462D01*
X296604Y47448D01*
X296800Y47464D01*
X296991Y47511D01*
X297172Y47587D01*
X297340Y47691D01*
X297489Y47820D01*
X297616Y47970D01*
X297718Y48138D01*
X297792Y48320D01*
X297837Y48512D01*
X297851Y48708D01*
X297835Y48904D01*
X297788Y49095D01*
X297712Y49277D01*
X297608Y49444D01*
X297480Y49593D01*
X297330Y49720D01*
X297161Y49822D01*
X296978Y49893D01*
X296425Y50049D01*
X295860Y50150D01*
X295287Y50201D01*
X295002D01*
Y67201D01*
X303343D01*
G37*
G36*
X295002D02*Y50201D01*
X294713D01*
X294140Y50150D01*
X293575Y50049D01*
X293020Y49899D01*
X292837Y49825D01*
X292668Y49723D01*
X292517Y49596D01*
X292389Y49446D01*
X292285Y49278D01*
X292208Y49096D01*
X292161Y48905D01*
X292145Y48708D01*
X292159Y48511D01*
X292204Y48319D01*
X292279Y48136D01*
X292381Y47968D01*
X292509Y47817D01*
X292658Y47688D01*
X292826Y47584D01*
X293008Y47508D01*
X293199Y47461D01*
X293396Y47444D01*
X293593Y47459D01*
X293784Y47507D01*
X294124Y47604D01*
X294471Y47666D01*
X294823Y47697D01*
X295002D01*
Y39705D01*
X294823D01*
X294471Y39736D01*
X294124Y39798D01*
X293783Y39890D01*
X293592Y39939D01*
X293396Y39954D01*
X293200Y39937D01*
X293009Y39890D01*
X292828Y39814D01*
X292660Y39710D01*
X292511Y39582D01*
X292384Y39432D01*
X292282Y39263D01*
X292208Y39081D01*
X292163Y38890D01*
X292149Y38694D01*
X292165Y38498D01*
X292212Y38306D01*
X292288Y38125D01*
X292392Y37958D01*
X292520Y37809D01*
X292670Y37682D01*
X292839Y37580D01*
X293022Y37509D01*
X293575Y37352D01*
X294140Y37251D01*
X294713Y37201D01*
X295002D01*
Y35201D01*
X289878D01*
Y40855D01*
X289993Y40845D01*
X290190Y40860D01*
X290382Y40905D01*
X290564Y40980D01*
X290733Y41082D01*
X290884Y41209D01*
X291013Y41359D01*
X291117Y41527D01*
X291193Y41709D01*
X291240Y41900D01*
X291257Y42097D01*
X291242Y42294D01*
X291193Y42485D01*
X291097Y42825D01*
X291035Y43172D01*
X291004Y43524D01*
Y43877D01*
X291035Y44229D01*
X291097Y44577D01*
X291190Y44918D01*
X291238Y45108D01*
X291253Y45305D01*
X291236Y45501D01*
X291190Y45692D01*
X291113Y45873D01*
X291010Y46040D01*
X290881Y46189D01*
X290731Y46316D01*
X290563Y46418D01*
X290381Y46493D01*
X290189Y46538D01*
X289993Y46552D01*
X289878Y46543D01*
Y67201D01*
X295002D01*
G37*
G36*
X261020Y22261D02*X262015Y22500D01*
X262960Y22891D01*
X263832Y23426D01*
X264610Y24090D01*
X265000Y24547D01*
X265390Y24090D01*
X265846Y23701D01*
X265390Y23311D01*
X264725Y22533D01*
X264191Y21661D01*
X263799Y20716D01*
X263560Y19721D01*
X263480Y18701D01*
X263560Y17681D01*
X263799Y16686D01*
X264191Y15741D01*
X264725Y14868D01*
X265390Y14090D01*
X266168Y13426D01*
X267040Y12891D01*
X267985Y12500D01*
X268980Y12261D01*
X270000Y12181D01*
X271020Y12261D01*
X272015Y12500D01*
X272960Y12891D01*
X273832Y13426D01*
X274610Y14090D01*
X275132Y14701D01*
X275343D01*
X288061Y1983D01*
X288073Y1969D01*
X260002D01*
Y12201D01*
X260287D01*
X260860Y12251D01*
X261425Y12352D01*
X261980Y12503D01*
X262163Y12576D01*
X262332Y12679D01*
X262483Y12806D01*
X262611Y12955D01*
X262715Y13123D01*
X262792Y13305D01*
X262839Y13497D01*
X262855Y13694D01*
X262841Y13890D01*
X262796Y14083D01*
X262721Y14265D01*
X262619Y14434D01*
X262491Y14585D01*
X262342Y14714D01*
X262174Y14818D01*
X261992Y14894D01*
X261801Y14941D01*
X261604Y14958D01*
X261407Y14943D01*
X261216Y14894D01*
X260876Y14798D01*
X260529Y14736D01*
X260177Y14705D01*
X260002D01*
Y22181D01*
X261020Y22261D01*
G37*
G36*
X289878Y67201D02*Y46543D01*
X289797Y46536D01*
X289606Y46489D01*
X289424Y46413D01*
X289257Y46309D01*
X289108Y46181D01*
X288981Y46030D01*
X288879Y45862D01*
X288808Y45679D01*
X288652Y45126D01*
X288551Y44560D01*
X288500Y43988D01*
Y43413D01*
X288551Y42841D01*
X288652Y42275D01*
X288802Y41721D01*
X288875Y41538D01*
X288978Y41369D01*
X289105Y41218D01*
X289255Y41089D01*
X289422Y40985D01*
X289604Y40909D01*
X289796Y40862D01*
X289878Y40855D01*
Y35201D01*
X288157D01*
X284000Y39358D01*
Y44544D01*
X284012Y44701D01*
X283963Y45328D01*
X283963Y45328D01*
X283816Y45941D01*
X283575Y46522D01*
X283246Y47059D01*
X282837Y47538D01*
X282718Y47640D01*
X279939Y50418D01*
X279837Y50538D01*
X279358Y50947D01*
X278822Y51276D01*
X278240Y51517D01*
X277628Y51664D01*
X277627Y51664D01*
X277000Y51713D01*
X276843Y51701D01*
X263157D01*
X263000Y51713D01*
X262372Y51664D01*
X261760Y51517D01*
X261178Y51276D01*
X260642Y50947D01*
X260641Y50947D01*
X260163Y50538D01*
X260061Y50418D01*
X260002Y50360D01*
Y67201D01*
X289878D01*
G37*
G36*
X255390Y24090D02*X256168Y23426D01*
X257040Y22891D01*
X257985Y22500D01*
X258980Y22261D01*
X260000Y22181D01*
X260002Y22181D01*
Y14705D01*
X259823D01*
X259471Y14736D01*
X259124Y14798D01*
X258783Y14890D01*
X258592Y14939D01*
X258396Y14954D01*
X258200Y14937D01*
X258009Y14890D01*
X257828Y14814D01*
X257660Y14710D01*
X257511Y14582D01*
X257384Y14432D01*
X257282Y14263D01*
X257208Y14081D01*
X257163Y13890D01*
X257149Y13694D01*
X257165Y13498D01*
X257212Y13306D01*
X257288Y13125D01*
X257392Y12958D01*
X257520Y12809D01*
X257670Y12682D01*
X257839Y12580D01*
X258022Y12509D01*
X258575Y12352D01*
X259140Y12251D01*
X259713Y12201D01*
X260002D01*
Y1969D01*
X254878D01*
Y15855D01*
X254993Y15845D01*
X255190Y15860D01*
X255382Y15905D01*
X255564Y15980D01*
X255733Y16082D01*
X255884Y16209D01*
X256013Y16359D01*
X256117Y16527D01*
X256193Y16709D01*
X256240Y16900D01*
X256257Y17097D01*
X256242Y17294D01*
X256193Y17485D01*
X256097Y17825D01*
X256035Y18172D01*
X256004Y18524D01*
Y18877D01*
X256035Y19229D01*
X256097Y19577D01*
X256190Y19918D01*
X256238Y20108D01*
X256253Y20305D01*
X256236Y20501D01*
X256190Y20692D01*
X256113Y20873D01*
X256010Y21040D01*
X255881Y21189D01*
X255731Y21316D01*
X255563Y21418D01*
X255381Y21493D01*
X255189Y21538D01*
X254993Y21552D01*
X254878Y21543D01*
Y24689D01*
X255390Y24090D01*
G37*
G36*
Y34090D02*X255846Y33701D01*
X255390Y33311D01*
X254878Y32713D01*
Y34689D01*
X255390Y34090D01*
G37*
G36*
X260002Y67201D02*Y50360D01*
X257282Y47640D01*
X257163Y47538D01*
X256754Y47059D01*
X256425Y46522D01*
X256184Y45941D01*
X256037Y45328D01*
X256037Y45328D01*
X255988Y44701D01*
X256000Y44544D01*
Y43832D01*
X255390Y43311D01*
X254878Y42713D01*
Y67201D01*
X260002D01*
G37*
G36*
X254878D02*Y42713D01*
X254725Y42533D01*
X254191Y41661D01*
X253799Y40716D01*
X253560Y39721D01*
X253480Y38701D01*
X253560Y37681D01*
X253799Y36686D01*
X254191Y35741D01*
X254725Y34868D01*
X254878Y34689D01*
Y32713D01*
X254725Y32533D01*
X254191Y31661D01*
X253799Y30716D01*
X253560Y29721D01*
X253480Y28701D01*
X253560Y27681D01*
X253799Y26686D01*
X254191Y25741D01*
X254725Y24868D01*
X254878Y24689D01*
Y21543D01*
X254797Y21536D01*
X254606Y21489D01*
X254424Y21413D01*
X254257Y21309D01*
X254108Y21181D01*
X253981Y21030D01*
X253879Y20862D01*
X253808Y20679D01*
X253652Y20126D01*
X253551Y19560D01*
X253500Y18988D01*
Y18413D01*
X253551Y17841D01*
X253652Y17275D01*
X253802Y16721D01*
X253875Y16538D01*
X253978Y16369D01*
X254105Y16218D01*
X254255Y16089D01*
X254422Y15985D01*
X254604Y15909D01*
X254796Y15862D01*
X254878Y15855D01*
Y1969D01*
X110236D01*
Y8806D01*
X110438Y8854D01*
X111918Y9467D01*
X113284Y10304D01*
X114502Y11344D01*
X115542Y12563D01*
X116379Y13928D01*
X116992Y15408D01*
X117366Y16966D01*
X117433Y18100D01*
X110236D01*
Y20600D01*
X117433D01*
X117366Y21735D01*
X116992Y23292D01*
X116379Y24772D01*
X115542Y26138D01*
X114502Y27356D01*
X113284Y28397D01*
X111918Y29234D01*
X110438Y29847D01*
X110236Y29895D01*
Y44681D01*
X114138D01*
X114236Y44673D01*
X114628Y44704D01*
X114629Y44704D01*
X115011Y44796D01*
X115375Y44947D01*
X115710Y45152D01*
X116009Y45408D01*
X116265Y45707D01*
X116471Y46043D01*
X116621Y46406D01*
X116713Y46789D01*
X116744Y47181D01*
X116736Y47279D01*
Y55083D01*
X116744Y55181D01*
X116713Y55573D01*
X116713Y55573D01*
X116621Y55956D01*
X116471Y56320D01*
X116265Y56655D01*
X116009Y56954D01*
X115710Y57210D01*
X115375Y57415D01*
X115011Y57566D01*
X114629Y57658D01*
X114236Y57689D01*
X114138Y57681D01*
X110236D01*
Y67201D01*
X254878D01*
G37*
G36*
X110236D02*Y57681D01*
X106334D01*
X106236Y57689D01*
X105844Y57658D01*
X105844Y57658D01*
X105461Y57566D01*
X105098Y57415D01*
X104762Y57210D01*
X104463Y56954D01*
X104207Y56655D01*
X104002Y56320D01*
X103851Y55956D01*
X103759Y55573D01*
X103729Y55181D01*
X103736Y55083D01*
Y47279D01*
X103729Y47181D01*
X103759Y46789D01*
X103759Y46789D01*
X103851Y46406D01*
X104002Y46043D01*
X104207Y45707D01*
X104463Y45408D01*
X104762Y45152D01*
X105098Y44947D01*
X105461Y44796D01*
X105844Y44704D01*
X106236Y44673D01*
X106334Y44681D01*
X110236D01*
Y29895D01*
X108880Y30221D01*
X108533Y30248D01*
Y20600D01*
X110236D01*
Y18100D01*
X108533D01*
Y8453D01*
X108880Y8480D01*
X110236Y8806D01*
Y1969D01*
X100238D01*
Y11196D01*
X101283Y10304D01*
X102649Y9467D01*
X104129Y8854D01*
X105686Y8480D01*
X106033Y8453D01*
Y18100D01*
X100238D01*
Y20600D01*
X106033D01*
Y30248D01*
X105686Y30221D01*
X104129Y29847D01*
X102649Y29234D01*
X101283Y28397D01*
X100238Y27504D01*
Y44681D01*
X100524D01*
X101096Y44732D01*
X101662Y44833D01*
X102216Y44983D01*
X102399Y45057D01*
X102568Y45159D01*
X102719Y45286D01*
X102848Y45436D01*
X102952Y45604D01*
X103028Y45785D01*
X103075Y45977D01*
X103092Y46174D01*
X103077Y46371D01*
X103032Y46563D01*
X102957Y46746D01*
X102855Y46914D01*
X102728Y47065D01*
X102578Y47194D01*
X102410Y47298D01*
X102228Y47374D01*
X102037Y47421D01*
X101840Y47438D01*
X101643Y47423D01*
X101452Y47375D01*
X101113Y47278D01*
X100765Y47216D01*
X100413Y47185D01*
X100238D01*
Y55177D01*
X100413D01*
X100765Y55146D01*
X101113Y55084D01*
X101453Y54991D01*
X101644Y54943D01*
X101840Y54928D01*
X102036Y54945D01*
X102227Y54992D01*
X102409Y55068D01*
X102576Y55171D01*
X102725Y55300D01*
X102852Y55450D01*
X102954Y55618D01*
X103028Y55801D01*
X103073Y55992D01*
X103088Y56188D01*
X103071Y56384D01*
X103024Y56575D01*
X102948Y56757D01*
X102845Y56924D01*
X102716Y57073D01*
X102566Y57200D01*
X102398Y57302D01*
X102214Y57373D01*
X101662Y57529D01*
X101096Y57630D01*
X100524Y57681D01*
X100238D01*
Y67201D01*
X110236D01*
G37*
G36*
X100238D02*Y57681D01*
X99949D01*
X99377Y57630D01*
X98811Y57529D01*
X98256Y57379D01*
X98073Y57306D01*
X97904Y57203D01*
X97754Y57076D01*
X97625Y56926D01*
X97521Y56759D01*
X97444Y56577D01*
X97397Y56385D01*
X97381Y56188D01*
X97395Y55992D01*
X97441Y55799D01*
X97515Y55617D01*
X97617Y55448D01*
X97745Y55297D01*
X97894Y55168D01*
X98062Y55064D01*
X98244Y54988D01*
X98436Y54941D01*
X98632Y54924D01*
X98829Y54939D01*
X99020Y54988D01*
X99360Y55084D01*
X99708Y55146D01*
X100060Y55177D01*
X100238D01*
Y47185D01*
X100060D01*
X99708Y47216D01*
X99360Y47278D01*
X99019Y47371D01*
X98829Y47419D01*
X98632Y47434D01*
X98436Y47418D01*
X98245Y47371D01*
X98064Y47294D01*
X97897Y47191D01*
X97748Y47062D01*
X97621Y46912D01*
X97519Y46744D01*
X97444Y46562D01*
X97399Y46370D01*
X97385Y46174D01*
X97401Y45978D01*
X97448Y45787D01*
X97524Y45605D01*
X97628Y45438D01*
X97756Y45289D01*
X97907Y45162D01*
X98075Y45060D01*
X98258Y44989D01*
X98811Y44833D01*
X99377Y44732D01*
X99949Y44681D01*
X100238D01*
Y27504D01*
X100065Y27356D01*
X99025Y26138D01*
X98188Y24772D01*
X97575Y23292D01*
X97201Y21735D01*
X97134Y20600D01*
X100238D01*
Y18100D01*
X97134D01*
X97201Y16966D01*
X97575Y15408D01*
X98188Y13928D01*
X99025Y12563D01*
X100065Y11344D01*
X100238Y11196D01*
Y1969D01*
X95115D01*
Y48335D01*
X95229Y48326D01*
X95426Y48340D01*
X95618Y48385D01*
X95801Y48460D01*
X95969Y48562D01*
X96120Y48690D01*
X96249Y48839D01*
X96353Y49007D01*
X96429Y49189D01*
X96476Y49381D01*
X96493Y49577D01*
X96478Y49774D01*
X96430Y49965D01*
X96333Y50305D01*
X96271Y50653D01*
X96240Y51004D01*
Y51358D01*
X96271Y51710D01*
X96333Y52057D01*
X96426Y52398D01*
X96475Y52589D01*
X96489Y52785D01*
X96473Y52981D01*
X96426Y53172D01*
X96350Y53353D01*
X96246Y53521D01*
X96117Y53670D01*
X95967Y53797D01*
X95799Y53899D01*
X95617Y53973D01*
X95425Y54018D01*
X95229Y54033D01*
X95115Y54023D01*
Y67201D01*
X100238D01*
G37*
G36*
X95115D02*Y54023D01*
X95033Y54016D01*
X94842Y53969D01*
X94660Y53893D01*
X94493Y53789D01*
X94344Y53661D01*
X94217Y53511D01*
X94115Y53342D01*
X94044Y53159D01*
X93888Y52606D01*
X93787Y52041D01*
X93736Y51468D01*
Y50894D01*
X93787Y50321D01*
X93888Y49756D01*
X94038Y49201D01*
X94112Y49018D01*
X94214Y48849D01*
X94341Y48699D01*
X94491Y48570D01*
X94659Y48466D01*
X94841Y48389D01*
X95032Y48342D01*
X95115Y48335D01*
Y1969D01*
X88494D01*
Y10246D01*
X88504Y10245D01*
X89466Y10321D01*
X90405Y10546D01*
X91297Y10915D01*
X92120Y11420D01*
X92855Y12047D01*
X93482Y12781D01*
X93986Y13604D01*
X94356Y14496D01*
X94581Y15435D01*
X94638Y16398D01*
X94581Y17360D01*
X94356Y18299D01*
X93986Y19191D01*
X93482Y20014D01*
X92855Y20748D01*
X92120Y21375D01*
X91297Y21880D01*
X90405Y22249D01*
X89466Y22475D01*
X88504Y22550D01*
X88494Y22550D01*
Y22844D01*
X88504Y22843D01*
X89466Y22919D01*
X90405Y23144D01*
X91297Y23514D01*
X92120Y24018D01*
X92855Y24645D01*
X93482Y25380D01*
X93986Y26203D01*
X94356Y27095D01*
X94581Y28034D01*
X94638Y28996D01*
X94581Y29959D01*
X94356Y30897D01*
X93986Y31789D01*
X93482Y32613D01*
X92855Y33347D01*
X92120Y33974D01*
X91297Y34478D01*
X90405Y34848D01*
X89466Y35073D01*
X88504Y35149D01*
X88494Y35148D01*
Y67201D01*
X95115D01*
G37*
G36*
X78663Y1969D02*Y10264D01*
X78931D01*
X79469Y10311D01*
X80001Y10406D01*
X80522Y10547D01*
X81029Y10733D01*
X81170Y10804D01*
X81297Y10897D01*
X81409Y11009D01*
X81501Y11137D01*
X81573Y11278D01*
X81621Y11429D01*
X81645Y11585D01*
X81645Y11743D01*
X81619Y11899D01*
X81570Y12049D01*
X81498Y12190D01*
X81405Y12317D01*
X81293Y12429D01*
X81164Y12521D01*
X81023Y12592D01*
X80873Y12641D01*
X80717Y12665D01*
X80559Y12664D01*
X80403Y12639D01*
X80254Y12587D01*
X79914Y12458D01*
X79563Y12363D01*
X79205Y12300D01*
X78843Y12268D01*
X78663D01*
Y20528D01*
X78843D01*
X79205Y20496D01*
X79563Y20432D01*
X79914Y20337D01*
X80255Y20212D01*
X80404Y20160D01*
X80559Y20135D01*
X80716Y20134D01*
X80872Y20158D01*
X81022Y20207D01*
X81162Y20278D01*
X81290Y20370D01*
X81402Y20481D01*
X81495Y20608D01*
X81566Y20748D01*
X81616Y20897D01*
X81641Y21053D01*
X81641Y21210D01*
X81617Y21366D01*
X81569Y21516D01*
X81498Y21656D01*
X81406Y21784D01*
X81295Y21895D01*
X81168Y21988D01*
X81026Y22057D01*
X80522Y22249D01*
X80001Y22390D01*
X79469Y22484D01*
X78931Y22531D01*
X78663D01*
Y22843D01*
X79624Y22919D01*
X80563Y23144D01*
X81455Y23514D01*
X82278Y24018D01*
X83012Y24645D01*
X83583Y25313D01*
X84153Y24645D01*
X84887Y24018D01*
X85711Y23514D01*
X86603Y23144D01*
X87541Y22919D01*
X88494Y22844D01*
Y22550D01*
X87541Y22475D01*
X86603Y22249D01*
X85711Y21880D01*
X84887Y21375D01*
X84153Y20748D01*
X83526Y20014D01*
X83113Y19340D01*
X83010Y19306D01*
X82869Y19234D01*
X82742Y19141D01*
X82630Y19029D01*
X82538Y18901D01*
X82467Y18760D01*
X82418Y18609D01*
X82394Y18453D01*
X82395Y18295D01*
X82420Y18139D01*
X82472Y17990D01*
X82537Y17819D01*
X82427Y17360D01*
X82351Y16398D01*
X82427Y15435D01*
X82538Y14973D01*
X82476Y14804D01*
X82424Y14655D01*
X82399Y14500D01*
X82398Y14343D01*
X82422Y14187D01*
X82470Y14037D01*
X82541Y13897D01*
X82634Y13769D01*
X82744Y13657D01*
X82872Y13565D01*
X83012Y13493D01*
X83110Y13460D01*
X83526Y12781D01*
X84153Y12047D01*
X84887Y11420D01*
X85711Y10915D01*
X86603Y10546D01*
X87541Y10321D01*
X88494Y10246D01*
Y1969D01*
X78663D01*
G37*
G36*
X88494Y67201D02*Y35148D01*
X87541Y35073D01*
X86603Y34848D01*
X85711Y34478D01*
X84887Y33974D01*
X84153Y33347D01*
X83583Y32679D01*
X83012Y33347D01*
X82278Y33974D01*
X81455Y34478D01*
X80563Y34848D01*
X79624Y35073D01*
X78663Y35149D01*
Y46319D01*
X79374Y46925D01*
X79987Y47644D01*
X80481Y48449D01*
X80842Y49321D01*
X81063Y50240D01*
X81118Y51181D01*
X81063Y52123D01*
X80842Y53041D01*
X80481Y53913D01*
X79987Y54719D01*
X79374Y55437D01*
X78663Y56044D01*
Y67201D01*
X88494D01*
G37*
G36*
X78661Y35149D02*X77699Y35073D01*
X76760Y34848D01*
X75868Y34478D01*
X75109Y34013D01*
Y45163D01*
X75118Y45163D01*
X76060Y45237D01*
X76978Y45457D01*
X77850Y45819D01*
X78656Y46312D01*
X78663Y46319D01*
Y35149D01*
X78661Y35149D01*
G37*
G36*
X75109Y1969D02*Y23979D01*
X75868Y23514D01*
X76760Y23144D01*
X77699Y22919D01*
X78661Y22843D01*
X78663Y22843D01*
Y22531D01*
X78391D01*
X77854Y22484D01*
X77322Y22390D01*
X76801Y22249D01*
X76294Y22063D01*
X76153Y21992D01*
X76025Y21898D01*
X75914Y21786D01*
X75822Y21658D01*
X75750Y21517D01*
X75702Y21367D01*
X75678Y21210D01*
X75678Y21052D01*
X75703Y20896D01*
X75753Y20746D01*
X75825Y20606D01*
X75918Y20478D01*
X76030Y20367D01*
X76158Y20274D01*
X76299Y20203D01*
X76450Y20155D01*
X76606Y20130D01*
X76764Y20131D01*
X76920Y20156D01*
X77069Y20208D01*
X77409Y20337D01*
X77760Y20432D01*
X78118Y20496D01*
X78480Y20528D01*
X78663D01*
Y12268D01*
X78480D01*
X78118Y12300D01*
X77760Y12363D01*
X77409Y12458D01*
X77068Y12583D01*
X76919Y12635D01*
X76764Y12660D01*
X76606Y12661D01*
X76451Y12637D01*
X76301Y12589D01*
X76161Y12518D01*
X76033Y12426D01*
X75921Y12315D01*
X75828Y12188D01*
X75756Y12048D01*
X75707Y11898D01*
X75682Y11743D01*
X75682Y11585D01*
X75706Y11430D01*
X75754Y11280D01*
X75825Y11139D01*
X75917Y11012D01*
X76028Y10900D01*
X76155Y10807D01*
X76296Y10738D01*
X76801Y10547D01*
X77322Y10406D01*
X77854Y10311D01*
X78391Y10264D01*
X78663D01*
Y1969D01*
X75109D01*
G37*
G36*
X78663Y67201D02*Y56044D01*
X78656Y56050D01*
X77850Y56544D01*
X76978Y56905D01*
X76060Y57126D01*
X75118Y57200D01*
X75109Y57199D01*
Y67201D01*
X78663D01*
G37*
G36*
X75109Y391732D02*Y75201D01*
X55120D01*
Y391732D01*
X75109D01*
G37*
G36*
X74311Y24645D02*X75045Y24018D01*
X75109Y23979D01*
Y1969D01*
X73728D01*
Y13433D01*
X73849Y13414D01*
X74007Y13414D01*
X74163Y13440D01*
X74313Y13489D01*
X74453Y13561D01*
X74581Y13654D01*
X74692Y13767D01*
X74785Y13895D01*
X74856Y14036D01*
X74905Y14186D01*
X74929Y14342D01*
X74928Y14500D01*
X74903Y14656D01*
X74851Y14805D01*
X74722Y15145D01*
X74627Y15496D01*
X74563Y15854D01*
X74532Y16216D01*
Y16579D01*
X74563Y16941D01*
X74627Y17299D01*
X74722Y17650D01*
X74847Y17992D01*
X74899Y18140D01*
X74924Y18295D01*
X74925Y18453D01*
X74901Y18608D01*
X74852Y18758D01*
X74781Y18899D01*
X74689Y19026D01*
X74578Y19138D01*
X74451Y19231D01*
X74311Y19303D01*
X74162Y19352D01*
X74006Y19377D01*
X73849Y19377D01*
X73728Y19359D01*
Y25328D01*
X74311Y24645D01*
G37*
G36*
X74177Y45237D02*X75109Y45163D01*
Y34013D01*
X75045Y33974D01*
X74311Y33347D01*
X73728Y32665D01*
Y45344D01*
X74177Y45237D01*
G37*
G36*
X75109Y67201D02*Y57199D01*
X74177Y57126D01*
X73728Y57018D01*
Y67201D01*
X75109D01*
G37*
G36*
X73728D02*Y57018D01*
X73258Y56905D01*
X72386Y56544D01*
X71581Y56050D01*
X70862Y55437D01*
X70249Y54719D01*
X69756Y53913D01*
X69394Y53041D01*
X69174Y52123D01*
X69100Y51181D01*
X69174Y50240D01*
X69394Y49321D01*
X69756Y48449D01*
X70249Y47644D01*
X70862Y46925D01*
X71581Y46312D01*
X72386Y45819D01*
X73258Y45457D01*
X73728Y45344D01*
Y32665D01*
X73684Y32613D01*
X73179Y31789D01*
X72810Y30897D01*
X72584Y29959D01*
X72509Y28996D01*
X72584Y28034D01*
X72810Y27095D01*
X73179Y26203D01*
X73684Y25380D01*
X73728Y25328D01*
Y19359D01*
X73693Y19353D01*
X73544Y19305D01*
X73403Y19234D01*
X73275Y19142D01*
X73164Y19031D01*
X73071Y18904D01*
X73002Y18763D01*
X72810Y18258D01*
X72669Y17737D01*
X72575Y17205D01*
X72528Y16668D01*
Y16128D01*
X72575Y15590D01*
X72669Y15058D01*
X72810Y14537D01*
X72996Y14030D01*
X73067Y13889D01*
X73161Y13762D01*
X73273Y13650D01*
X73401Y13558D01*
X73542Y13487D01*
X73692Y13438D01*
X73728Y13433D01*
Y1969D01*
X65582D01*
Y10120D01*
X65882Y10304D01*
X67100Y11344D01*
X68141Y12563D01*
X68978Y13928D01*
X69591Y15408D01*
X69965Y16966D01*
X70032Y18100D01*
X65582D01*
Y20600D01*
X70032D01*
X69965Y21735D01*
X69591Y23292D01*
X68978Y24772D01*
X68141Y26138D01*
X67100Y27356D01*
X65882Y28397D01*
X65582Y28581D01*
Y67201D01*
X73728D01*
G37*
G36*
X65582D02*Y28581D01*
X64516Y29234D01*
X63037Y29847D01*
X61479Y30221D01*
X61132Y30248D01*
Y20600D01*
X65582D01*
Y18100D01*
X61132D01*
Y8453D01*
X61479Y8480D01*
X63037Y8854D01*
X64516Y9467D01*
X65582Y10120D01*
Y1969D01*
X59611D01*
Y48326D01*
X59697Y48362D01*
X59797Y48424D01*
X59887Y48500D01*
X59963Y48590D01*
X60023Y48692D01*
X60240Y49161D01*
X60407Y49650D01*
X60527Y50153D01*
X60600Y50665D01*
X60624Y51181D01*
X60600Y51697D01*
X60527Y52209D01*
X60407Y52712D01*
X60240Y53201D01*
X60028Y53673D01*
X59967Y53774D01*
X59890Y53865D01*
X59800Y53942D01*
X59699Y54004D01*
X59611Y54041D01*
Y67201D01*
X65582D01*
G37*
G36*
X59611D02*Y54041D01*
X59589Y54050D01*
X59474Y54078D01*
X59355Y54087D01*
X59237Y54078D01*
X59121Y54051D01*
X59011Y54005D01*
X58910Y53944D01*
X58820Y53867D01*
X58742Y53776D01*
X58680Y53675D01*
X58635Y53566D01*
X58607Y53450D01*
X58597Y53332D01*
X58606Y53213D01*
X58634Y53098D01*
X58681Y52989D01*
X58839Y52649D01*
X58960Y52293D01*
X59048Y51928D01*
X59100Y51556D01*
X59118Y51181D01*
X59100Y50806D01*
X59048Y50434D01*
X58960Y50069D01*
X58839Y49713D01*
X58685Y49371D01*
X58638Y49263D01*
X58611Y49148D01*
X58602Y49030D01*
X58611Y48913D01*
X58639Y48798D01*
X58684Y48689D01*
X58746Y48588D01*
X58823Y48499D01*
X58913Y48422D01*
X59013Y48361D01*
X59123Y48316D01*
X59237Y48288D01*
X59355Y48279D01*
X59473Y48289D01*
X59588Y48316D01*
X59611Y48326D01*
Y1969D01*
X55120D01*
Y9545D01*
X55247Y9467D01*
X56727Y8854D01*
X58285Y8480D01*
X58632Y8453D01*
Y18100D01*
X55120D01*
Y20600D01*
X58632D01*
Y30248D01*
X58285Y30221D01*
X56727Y29847D01*
X55247Y29234D01*
X55120Y29156D01*
Y45675D01*
X55634Y45699D01*
X56146Y45772D01*
X56649Y45892D01*
X57138Y46059D01*
X57610Y46271D01*
X57711Y46332D01*
X57802Y46409D01*
X57879Y46500D01*
X57941Y46601D01*
X57987Y46710D01*
X58015Y46826D01*
X58024Y46944D01*
X58015Y47062D01*
X57988Y47178D01*
X57942Y47288D01*
X57881Y47389D01*
X57804Y47480D01*
X57713Y47557D01*
X57612Y47619D01*
X57503Y47665D01*
X57387Y47693D01*
X57269Y47702D01*
X57150Y47693D01*
X57035Y47665D01*
X56926Y47618D01*
X56586Y47460D01*
X56230Y47339D01*
X55865Y47251D01*
X55493Y47199D01*
X55120Y47181D01*
Y55181D01*
X55493Y55163D01*
X55865Y55111D01*
X56230Y55023D01*
X56586Y54902D01*
X56928Y54748D01*
X57036Y54701D01*
X57151Y54674D01*
X57269Y54665D01*
X57387Y54674D01*
X57501Y54702D01*
X57610Y54747D01*
X57711Y54809D01*
X57800Y54886D01*
X57877Y54976D01*
X57939Y55076D01*
X57984Y55186D01*
X58011Y55300D01*
X58020Y55418D01*
X58011Y55536D01*
X57983Y55651D01*
X57937Y55760D01*
X57876Y55860D01*
X57799Y55950D01*
X57709Y56026D01*
X57607Y56086D01*
X57138Y56303D01*
X56649Y56470D01*
X56146Y56590D01*
X55634Y56663D01*
X55120Y56687D01*
Y67201D01*
X59611D01*
G37*
G36*
X55120Y391732D02*Y75201D01*
X50626D01*
Y391732D01*
X55120D01*
G37*
G36*
X50786Y13928D02*X51623Y12563D01*
X52663Y11344D01*
X53881Y10304D01*
X55120Y9545D01*
Y1969D01*
X50626D01*
Y14316D01*
X50786Y13928D01*
G37*
G36*
X55120Y20600D02*Y18100D01*
X50626D01*
Y20600D01*
X55120D01*
G37*
G36*
Y67201D02*Y56687D01*
X55118Y56687D01*
X54602Y56663D01*
X54090Y56590D01*
X53587Y56470D01*
X53098Y56303D01*
X52626Y56091D01*
X52525Y56030D01*
X52434Y55953D01*
X52357Y55863D01*
X52295Y55762D01*
X52249Y55652D01*
X52221Y55536D01*
X52212Y55418D01*
X52221Y55300D01*
X52248Y55184D01*
X52294Y55074D01*
X52356Y54973D01*
X52433Y54883D01*
X52523Y54805D01*
X52624Y54743D01*
X52734Y54698D01*
X52849Y54670D01*
X52967Y54660D01*
X53086Y54669D01*
X53201Y54697D01*
X53310Y54744D01*
X53650Y54902D01*
X54006Y55023D01*
X54371Y55111D01*
X54743Y55163D01*
X55118Y55181D01*
X55120Y55181D01*
Y47181D01*
X55118Y47181D01*
X54743Y47199D01*
X54371Y47251D01*
X54006Y47339D01*
X53650Y47460D01*
X53308Y47614D01*
X53200Y47661D01*
X53085Y47689D01*
X52967Y47698D01*
X52850Y47688D01*
X52735Y47660D01*
X52626Y47615D01*
X52525Y47553D01*
X52436Y47476D01*
X52359Y47387D01*
X52298Y47286D01*
X52253Y47177D01*
X52225Y47062D01*
X52216Y46944D01*
X52226Y46826D01*
X52253Y46712D01*
X52299Y46603D01*
X52361Y46502D01*
X52437Y46412D01*
X52527Y46336D01*
X52629Y46277D01*
X53098Y46059D01*
X53587Y45892D01*
X54090Y45772D01*
X54602Y45699D01*
X55118Y45675D01*
X55120Y45675D01*
Y29156D01*
X53881Y28397D01*
X52663Y27356D01*
X51623Y26138D01*
X50786Y24772D01*
X50626Y24385D01*
Y48321D01*
X50647Y48312D01*
X50763Y48284D01*
X50881Y48275D01*
X50999Y48284D01*
X51115Y48311D01*
X51225Y48357D01*
X51326Y48419D01*
X51417Y48496D01*
X51494Y48586D01*
X51556Y48687D01*
X51602Y48797D01*
X51630Y48912D01*
X51639Y49030D01*
X51630Y49149D01*
X51602Y49264D01*
X51555Y49373D01*
X51397Y49713D01*
X51276Y50069D01*
X51188Y50434D01*
X51136Y50806D01*
X51118Y51181D01*
X51136Y51556D01*
X51188Y51928D01*
X51276Y52293D01*
X51397Y52649D01*
X51551Y52991D01*
X51598Y53099D01*
X51626Y53214D01*
X51635Y53332D01*
X51625Y53450D01*
X51597Y53564D01*
X51552Y53673D01*
X51490Y53774D01*
X51413Y53863D01*
X51324Y53940D01*
X51223Y54002D01*
X51114Y54047D01*
X50999Y54074D01*
X50881Y54083D01*
X50763Y54074D01*
X50649Y54046D01*
X50626Y54036D01*
Y67201D01*
X55120D01*
G37*
G36*
X50626Y391732D02*Y75201D01*
X45657D01*
X45500Y75213D01*
X44872Y75164D01*
X44260Y75017D01*
X43678Y74776D01*
X43142Y74447D01*
X43141Y74447D01*
X42663Y74038D01*
X42561Y73918D01*
X37404Y68761D01*
Y391732D01*
X50626D01*
G37*
G36*
X44337Y40752D02*X44080Y41823D01*
X43658Y42841D01*
X43082Y43781D01*
X42976Y43905D01*
Y63020D01*
X47157Y67201D01*
X50626D01*
Y54036D01*
X50540Y54000D01*
X50439Y53939D01*
X50349Y53862D01*
X50273Y53772D01*
X50214Y53670D01*
X49996Y53201D01*
X49829Y52712D01*
X49709Y52209D01*
X49636Y51697D01*
X49612Y51181D01*
X49636Y50665D01*
X49709Y50153D01*
X49829Y49650D01*
X49996Y49161D01*
X50208Y48689D01*
X50269Y48588D01*
X50346Y48497D01*
X50437Y48420D01*
X50538Y48358D01*
X50626Y48321D01*
Y24385D01*
X50173Y23292D01*
X49799Y21735D01*
X49732Y20600D01*
X50626D01*
Y18100D01*
X49732D01*
X49799Y16966D01*
X50173Y15408D01*
X50626Y14316D01*
Y1969D01*
X42976D01*
Y18439D01*
X43145Y18473D01*
X43330Y18541D01*
X43501Y18638D01*
X43655Y18760D01*
X43789Y18905D01*
X43897Y19069D01*
X43976Y19249D01*
X44167Y19832D01*
X44301Y20431D01*
X44381Y21040D01*
X44408Y21654D01*
X44381Y22267D01*
X44301Y22876D01*
X44167Y23475D01*
X43982Y24060D01*
X43901Y24240D01*
X43792Y24405D01*
X43658Y24550D01*
X43504Y24673D01*
X43332Y24770D01*
X43147Y24839D01*
X42976Y24873D01*
Y35402D01*
X43082Y35526D01*
X43658Y36466D01*
X44080Y37484D01*
X44337Y38555D01*
X44402Y39654D01*
X44337Y40752D01*
G37*
G36*
X37404Y1969D02*Y14647D01*
X38015Y14674D01*
X38624Y14754D01*
X39223Y14888D01*
X39808Y15073D01*
X39988Y15154D01*
X40153Y15263D01*
X40298Y15397D01*
X40421Y15551D01*
X40518Y15723D01*
X40587Y15908D01*
X40626Y16102D01*
X40634Y16299D01*
X40611Y16495D01*
X40558Y16686D01*
X40476Y16865D01*
X40367Y17030D01*
X40233Y17175D01*
X40079Y17298D01*
X39907Y17394D01*
X39721Y17463D01*
X39528Y17502D01*
X39331Y17511D01*
X39135Y17488D01*
X38946Y17431D01*
X38571Y17308D01*
X38186Y17223D01*
X37796Y17171D01*
X37404Y17154D01*
Y26153D01*
X37796Y26136D01*
X38186Y26085D01*
X38571Y25999D01*
X38947Y25880D01*
X39135Y25823D01*
X39331Y25801D01*
X39527Y25809D01*
X39720Y25848D01*
X39905Y25917D01*
X40076Y26013D01*
X40230Y26135D01*
X40363Y26280D01*
X40472Y26444D01*
X40554Y26623D01*
X40607Y26813D01*
X40630Y27008D01*
X40621Y27205D01*
X40582Y27397D01*
X40514Y27582D01*
X40417Y27753D01*
X40295Y27907D01*
X40150Y28041D01*
X39986Y28149D01*
X39806Y28228D01*
X39223Y28419D01*
X38624Y28553D01*
X38015Y28633D01*
X37404Y28660D01*
Y32632D01*
X38500Y32718D01*
X39571Y32976D01*
X40589Y33397D01*
X41529Y33973D01*
X42367Y34689D01*
X42976Y35402D01*
Y24873D01*
X42953Y24878D01*
X42756Y24886D01*
X42560Y24863D01*
X42370Y24810D01*
X42190Y24728D01*
X42026Y24619D01*
X41880Y24485D01*
X41758Y24330D01*
X41661Y24158D01*
X41592Y23973D01*
X41553Y23780D01*
X41544Y23583D01*
X41567Y23387D01*
X41624Y23198D01*
X41747Y22823D01*
X41833Y22438D01*
X41884Y22047D01*
X41902Y21654D01*
X41884Y21260D01*
X41833Y20869D01*
X41747Y20484D01*
X41628Y20108D01*
X41571Y19920D01*
X41549Y19724D01*
X41557Y19528D01*
X41596Y19335D01*
X41665Y19150D01*
X41761Y18979D01*
X41883Y18825D01*
X42028Y18692D01*
X42192Y18583D01*
X42371Y18501D01*
X42561Y18448D01*
X42756Y18426D01*
X42953Y18434D01*
X42976Y18439D01*
Y1969D01*
X37404D01*
G37*
G36*
X42367Y44619D02*X41529Y45334D01*
X41500Y45352D01*
Y61544D01*
X42976Y63020D01*
Y43905D01*
X42367Y44619D01*
G37*
G36*
X37404Y391732D02*Y68761D01*
X34782Y66140D01*
X34663Y66038D01*
X34254Y65559D01*
X33925Y65022D01*
X33684Y64441D01*
X33537Y63828D01*
X33537Y63828D01*
X33488Y63201D01*
X33500Y63044D01*
Y45472D01*
X33274Y45334D01*
X32437Y44619D01*
X31827Y43905D01*
Y391732D01*
X37404D01*
G37*
G36*
X31827Y1969D02*Y18434D01*
X31850Y18430D01*
X32047Y18421D01*
X32243Y18444D01*
X32434Y18497D01*
X32613Y18579D01*
X32778Y18688D01*
X32923Y18822D01*
X33046Y18977D01*
X33143Y19149D01*
X33211Y19334D01*
X33250Y19527D01*
X33259Y19724D01*
X33236Y19921D01*
X33179Y20109D01*
X33056Y20484D01*
X32971Y20869D01*
X32919Y21260D01*
X32902Y21654D01*
X32919Y22047D01*
X32971Y22438D01*
X33056Y22823D01*
X33175Y23199D01*
X33232Y23387D01*
X33254Y23583D01*
X33246Y23779D01*
X33207Y23972D01*
X33139Y24157D01*
X33042Y24328D01*
X32920Y24482D01*
X32775Y24615D01*
X32611Y24724D01*
X32432Y24806D01*
X32243Y24859D01*
X32047Y24882D01*
X31851Y24873D01*
X31827Y24868D01*
Y35402D01*
X32437Y34689D01*
X33274Y33973D01*
X34214Y33397D01*
X35232Y32976D01*
X36303Y32718D01*
X37402Y32632D01*
X37404Y32632D01*
Y28660D01*
X37402Y28660D01*
X36788Y28633D01*
X36180Y28553D01*
X35580Y28419D01*
X34995Y28234D01*
X34815Y28153D01*
X34650Y28044D01*
X34505Y27910D01*
X34382Y27756D01*
X34285Y27584D01*
X34217Y27399D01*
X34178Y27205D01*
X34169Y27008D01*
X34192Y26812D01*
X34245Y26622D01*
X34327Y26442D01*
X34436Y26278D01*
X34570Y26132D01*
X34725Y26010D01*
X34897Y25913D01*
X35082Y25844D01*
X35275Y25805D01*
X35472Y25796D01*
X35669Y25819D01*
X35857Y25876D01*
X36232Y25999D01*
X36617Y26085D01*
X37008Y26136D01*
X37402Y26154D01*
X37404Y26153D01*
Y17154D01*
X37402Y17154D01*
X37008Y17171D01*
X36617Y17223D01*
X36232Y17308D01*
X35856Y17427D01*
X35668Y17484D01*
X35472Y17506D01*
X35276Y17498D01*
X35083Y17459D01*
X34898Y17391D01*
X34727Y17294D01*
X34573Y17172D01*
X34440Y17027D01*
X34331Y16863D01*
X34249Y16684D01*
X34196Y16495D01*
X34174Y16299D01*
X34182Y16102D01*
X34221Y15910D01*
X34289Y15725D01*
X34386Y15554D01*
X34508Y15400D01*
X34653Y15267D01*
X34817Y15158D01*
X34997Y15079D01*
X35580Y14888D01*
X36180Y14754D01*
X36788Y14674D01*
X37402Y14647D01*
X37404Y14647D01*
Y1969D01*
X31827D01*
G37*
G36*
X17385D02*Y18439D01*
X17554Y18473D01*
X17739Y18541D01*
X17910Y18638D01*
X18064Y18760D01*
X18198Y18905D01*
X18306Y19069D01*
X18385Y19249D01*
X18576Y19832D01*
X18710Y20431D01*
X18790Y21040D01*
X18817Y21654D01*
X18790Y22267D01*
X18710Y22876D01*
X18576Y23475D01*
X18391Y24060D01*
X18310Y24240D01*
X18201Y24405D01*
X18067Y24550D01*
X17913Y24673D01*
X17741Y24770D01*
X17556Y24839D01*
X17385Y24873D01*
Y35402D01*
X17491Y35526D01*
X18067Y36466D01*
X18489Y37484D01*
X18746Y38555D01*
X18811Y39654D01*
X18746Y40752D01*
X18489Y41823D01*
X18067Y42841D01*
X17491Y43781D01*
X17385Y43905D01*
Y383527D01*
X25591Y391732D01*
X31827D01*
Y43905D01*
X31721Y43781D01*
X31145Y42841D01*
X30724Y41823D01*
X30466Y40752D01*
X30380Y39654D01*
X30466Y38555D01*
X30724Y37484D01*
X31145Y36466D01*
X31721Y35526D01*
X31827Y35402D01*
Y24868D01*
X31658Y24834D01*
X31473Y24766D01*
X31302Y24669D01*
X31148Y24547D01*
X31015Y24402D01*
X30906Y24238D01*
X30827Y24058D01*
X30636Y23475D01*
X30502Y22876D01*
X30422Y22267D01*
X30395Y21654D01*
X30422Y21040D01*
X30502Y20431D01*
X30636Y19832D01*
X30821Y19247D01*
X30902Y19067D01*
X31011Y18902D01*
X31145Y18757D01*
X31299Y18634D01*
X31471Y18537D01*
X31656Y18469D01*
X31827Y18434D01*
Y1969D01*
X17385D01*
G37*
G36*
X16776Y44619D02*X15938Y45334D01*
X14998Y45910D01*
X13980Y46331D01*
X12909Y46589D01*
X11811Y46675D01*
X11800Y46674D01*
Y377942D01*
X17385Y383527D01*
Y43905D01*
X16776Y44619D01*
G37*
G36*
X11800Y1969D02*Y14647D01*
X11811Y14647D01*
X12424Y14674D01*
X13033Y14754D01*
X13632Y14888D01*
X14217Y15073D01*
X14397Y15154D01*
X14562Y15263D01*
X14707Y15397D01*
X14830Y15551D01*
X14927Y15723D01*
X14996Y15908D01*
X15035Y16102D01*
X15043Y16299D01*
X15020Y16495D01*
X14967Y16686D01*
X14885Y16865D01*
X14776Y17030D01*
X14642Y17175D01*
X14488Y17298D01*
X14316Y17394D01*
X14130Y17463D01*
X13937Y17502D01*
X13740Y17511D01*
X13544Y17488D01*
X13355Y17431D01*
X12980Y17308D01*
X12595Y17223D01*
X12205Y17171D01*
X11811Y17154D01*
X11800Y17154D01*
Y26153D01*
X11811Y26154D01*
X12205Y26136D01*
X12595Y26085D01*
X12980Y25999D01*
X13356Y25880D01*
X13544Y25823D01*
X13740Y25801D01*
X13936Y25809D01*
X14129Y25848D01*
X14314Y25917D01*
X14485Y26013D01*
X14639Y26135D01*
X14772Y26280D01*
X14881Y26444D01*
X14963Y26623D01*
X15016Y26813D01*
X15039Y27008D01*
X15030Y27205D01*
X14991Y27397D01*
X14923Y27582D01*
X14826Y27753D01*
X14704Y27907D01*
X14559Y28041D01*
X14395Y28149D01*
X14215Y28228D01*
X13632Y28419D01*
X13033Y28553D01*
X12424Y28633D01*
X11811Y28660D01*
X11800Y28660D01*
Y32633D01*
X11811Y32632D01*
X12909Y32718D01*
X13980Y32976D01*
X14998Y33397D01*
X15938Y33973D01*
X16776Y34689D01*
X17385Y35402D01*
Y24873D01*
X17362Y24878D01*
X17165Y24886D01*
X16969Y24863D01*
X16779Y24810D01*
X16599Y24728D01*
X16435Y24619D01*
X16289Y24485D01*
X16167Y24330D01*
X16070Y24158D01*
X16001Y23973D01*
X15962Y23780D01*
X15953Y23583D01*
X15976Y23387D01*
X16033Y23198D01*
X16156Y22823D01*
X16242Y22438D01*
X16293Y22047D01*
X16311Y21654D01*
X16293Y21260D01*
X16242Y20869D01*
X16156Y20484D01*
X16037Y20108D01*
X15980Y19920D01*
X15958Y19724D01*
X15966Y19528D01*
X16005Y19335D01*
X16074Y19150D01*
X16170Y18979D01*
X16292Y18825D01*
X16437Y18692D01*
X16601Y18583D01*
X16780Y18501D01*
X16970Y18448D01*
X17165Y18426D01*
X17362Y18434D01*
X17385Y18439D01*
Y1969D01*
X11800D01*
G37*
G36*
Y377942D02*Y46674D01*
X10712Y46589D01*
X9641Y46331D01*
X8623Y45910D01*
X7683Y45334D01*
X6846Y44619D01*
X6236Y43905D01*
Y372378D01*
X11800Y377942D01*
G37*
G36*
X6236Y1969D02*Y18434D01*
X6259Y18430D01*
X6456Y18421D01*
X6652Y18444D01*
X6843Y18497D01*
X7022Y18579D01*
X7187Y18688D01*
X7332Y18822D01*
X7455Y18977D01*
X7552Y19149D01*
X7620Y19334D01*
X7659Y19527D01*
X7668Y19724D01*
X7645Y19921D01*
X7588Y20109D01*
X7465Y20484D01*
X7380Y20869D01*
X7328Y21260D01*
X7311Y21654D01*
X7328Y22047D01*
X7380Y22438D01*
X7465Y22823D01*
X7584Y23199D01*
X7641Y23387D01*
X7663Y23583D01*
X7655Y23779D01*
X7616Y23972D01*
X7548Y24157D01*
X7451Y24328D01*
X7329Y24482D01*
X7184Y24615D01*
X7020Y24724D01*
X6841Y24806D01*
X6652Y24859D01*
X6456Y24882D01*
X6260Y24873D01*
X6236Y24868D01*
Y35402D01*
X6846Y34689D01*
X7683Y33973D01*
X8623Y33397D01*
X9641Y32976D01*
X10712Y32718D01*
X11800Y32633D01*
Y28660D01*
X11197Y28633D01*
X10589Y28553D01*
X9989Y28419D01*
X9404Y28234D01*
X9224Y28153D01*
X9059Y28044D01*
X8914Y27910D01*
X8791Y27756D01*
X8694Y27584D01*
X8626Y27399D01*
X8587Y27205D01*
X8578Y27008D01*
X8601Y26812D01*
X8654Y26622D01*
X8736Y26442D01*
X8845Y26278D01*
X8979Y26132D01*
X9134Y26010D01*
X9306Y25913D01*
X9491Y25844D01*
X9684Y25805D01*
X9881Y25796D01*
X10078Y25819D01*
X10266Y25876D01*
X10641Y25999D01*
X11026Y26085D01*
X11417Y26136D01*
X11800Y26153D01*
Y17154D01*
X11417Y17171D01*
X11026Y17223D01*
X10641Y17308D01*
X10265Y17427D01*
X10077Y17484D01*
X9881Y17506D01*
X9685Y17498D01*
X9492Y17459D01*
X9307Y17391D01*
X9136Y17294D01*
X8982Y17172D01*
X8849Y17027D01*
X8740Y16863D01*
X8658Y16684D01*
X8605Y16495D01*
X8583Y16299D01*
X8591Y16102D01*
X8630Y15910D01*
X8698Y15725D01*
X8795Y15554D01*
X8917Y15400D01*
X9062Y15267D01*
X9226Y15158D01*
X9406Y15079D01*
X9989Y14888D01*
X10589Y14754D01*
X11197Y14674D01*
X11800Y14647D01*
Y1969D01*
X6236D01*
G37*
G36*
X1969D02*Y368110D01*
X6236Y372378D01*
Y43905D01*
X6130Y43781D01*
X5554Y42841D01*
X5133Y41823D01*
X4875Y40752D01*
X4789Y39654D01*
X4875Y38555D01*
X5133Y37484D01*
X5554Y36466D01*
X6130Y35526D01*
X6236Y35402D01*
Y24868D01*
X6067Y24834D01*
X5882Y24766D01*
X5711Y24669D01*
X5557Y24547D01*
X5424Y24402D01*
X5315Y24238D01*
X5236Y24058D01*
X5045Y23475D01*
X4911Y22876D01*
X4831Y22267D01*
X4804Y21654D01*
X4831Y21040D01*
X4911Y20431D01*
X5045Y19832D01*
X5230Y19247D01*
X5311Y19067D01*
X5420Y18902D01*
X5554Y18757D01*
X5708Y18634D01*
X5880Y18537D01*
X6065Y18469D01*
X6236Y18434D01*
Y1969D01*
X1969D01*
G37*
G54D22*X260000Y38701D02*Y44701D01*
X263000Y47701D01*
X277000D01*
X270000Y28701D02*X277500D01*
X282500Y23701D01*
X277000Y47701D02*X280000Y44701D01*
Y37701D01*
X277000Y18701D02*X270000D01*
X286500Y31201D02*X280000Y37701D01*
X313000Y23701D02*X315000Y21701D01*
X316500Y31201D02*X325000Y22701D01*
Y32701D02*Y43701D01*
X333500Y9201D02*Y24201D01*
X315000Y21701D02*Y13701D01*
X325000Y22701D02*Y13701D01*
X333500Y24201D02*X325000Y32701D01*
X316500Y31201D02*X286500D01*
X282500Y23701D02*X313000D01*
X315000Y43701D02*Y61201D01*
X305000Y71201D01*
X45500D01*
X37500Y63201D01*
Y39752D01*
X37402Y39654D01*
X333500Y9201D02*X329000Y4701D01*
X291000D01*
X277000Y18701D02*X291000Y4701D01*
G54D23*X75118Y51181D03*
X55118D03*
X315000Y43701D03*
X305000D03*
X295000D03*
G54D21*G36*
X106236Y47181D02*Y55181D01*
X114236D01*
Y47181D01*
X106236D01*
G37*
G54D23*X100236Y51181D03*
G54D24*X37402Y39654D03*
X11811D03*
G54D21*G36*
X329000Y47701D02*Y39701D01*
X321000D01*
Y47701D01*
X329000D01*
G37*
G54D23*X325000Y13701D03*
X315000D03*
G54D25*X78661Y28996D03*
Y16398D03*
X88504Y28996D03*
G54D26*X59882Y20138D02*Y18563D01*
G54D23*X305000Y13701D03*
G54D26*X107283Y20138D02*Y18563D01*
G54D25*X88504Y16398D03*
G54D24*X37402Y21654D03*
X11811D03*
G54D21*G36*
X274000Y34701D02*X266000D01*
Y42701D01*
X274000D01*
Y34701D01*
G37*
G54D23*X260000Y38701D03*
Y28701D03*
Y18701D03*
X295000Y13701D03*
X270000Y28701D03*
Y18701D03*
X364173Y17717D02*Y12559D01*
G54D21*G36*
X368173Y46559D02*Y33359D01*
X360173D01*
Y46559D01*
X368173D01*
G37*
G54D27*G54D28*G54D29*G54D28*G54D30*G54D28*G54D30*G54D29*G54D28*M02*
