M48
INCH
T13C0.079
T12C0.037
T11C0.039
%
T12
G05
X007866Y002900
X007866Y001640
X008850Y002900
X008850Y001640
T11
X007512Y005118
X005512Y005118
X031500Y004370
X030500Y004370
X029500Y004370
X011024Y005118
X010024Y005118
X003740Y003965
X001181Y003965
X032500Y004370
X032500Y001370
X031500Y001370
X030500Y001370
X003740Y002165
X001181Y002165
X027000Y003870
X026000Y003870
X026000Y002870
X026000Y001870
X029500Y001370
X027000Y002870
X027000Y001870
T13
X038386Y038386
X000984Y038386
M30
