G04 start of page 2 for group 9 layer_idx 9 *
G04 Title: (unknown), bottom_mask *
G04 Creator: pcb-rnd 3.1.5-dev *
G04 CreationDate: 2024-03-25 20:38:14 UTC *
G04 For: STEM4ukraine *
G04 Format: Gerber/RS-274X *
G04 PCB-Dimensions: 393701 393701 *
G04 PCB-Coordinate-Origin: lower left *
%MOIN*%
%FSLAX25Y25*%
%LNBOTTOM_MASK_NONE_9*%
%ADD56C,0.1595*%
%ADD55C,0.0887*%
%ADD54C,0.0960*%
%ADD53C,0.0001*%
%ADD52C,0.0860*%
G54D52*X75118Y51181D03*
X55118D03*
X315000Y43701D03*
X305000D03*
X295000D03*
G54D53*G36*
X105936Y46881D02*Y55481D01*
X114536D01*
Y46881D01*
X105936D01*
G37*
G54D52*X100236Y51181D03*
G54D54*X37402Y39654D03*
X11811D03*
G54D53*G36*
X329300Y48001D02*Y39401D01*
X320700D01*
Y48001D01*
X329300D01*
G37*
G54D52*X325000Y13701D03*
X315000D03*
G54D55*X78661Y28996D03*
Y16398D03*
X88504Y28996D03*
G54D56*X59882Y20138D02*Y18563D01*
G54D52*X305000Y13701D03*
G54D56*X107283Y20138D02*Y18563D01*
G54D55*X88504Y16398D03*
G54D54*X37402Y21654D03*
X11811D03*
G54D53*G36*
X274300Y34401D02*X265700D01*
Y43001D01*
X274300D01*
Y34401D01*
G37*
G54D52*X260000Y38701D03*
Y28701D03*
Y18701D03*
X295000Y13701D03*
X270000Y28701D03*
Y18701D03*
X364173Y17717D02*Y12559D01*
G54D53*G36*
X368473Y46859D02*Y33059D01*
X359873D01*
Y46859D01*
X368473D01*
G37*
M02*
